<!--?xml version="1.0" encoding="utf-8"?-->
<!-- Generator: Adobe Illustrator 18.1.1, SVG Export Plug-In . SVG Version: 6.00 Build 0)  -->

<svg version="1.1" id="_x32_" xmlns="http://www.w3.org/2000/svg" xmlns:xlink="http://www.w3.org/1999/xlink" x="0px" y="0px" viewBox="0 0 512 512" style="width: 512px; height: 512px; opacity: 1;" xml:space="preserve">
<style type="text/css">
	.st0{fill:#4B4B4B;}
</style>
<g>
	<path class="st0" d="M92.979,291.307c20.985,21.906,46.67,40.881,78.323,54.47l8.719,3.734v21.308
		c3.037,1.143,7.058,2.465,11.99,3.85c13.928,3.779,35.208,7.674,63.993,7.674c39.104,0,64.395-7.228,76.036-11.525v-21.308
		l8.719-3.734c47.43-20.352,81.656-52.916,106.26-89.276c24.604-36.361,39.344-76.555,47.081-110.904
		c5.164-22.88,7.219-43.169,7.219-57.624c0-4.592-1.144-9.121-3.663-13.99c-2.52-4.878-6.539-10.095-12.15-15.322
		c-11.239-10.488-28.802-20.923-51.155-29.704C389.673,11.346,326.135,0,256.005,0c-46.045,0-89.223,4.869-126.092,13.186
		c-36.88,8.372-67.504,20.306-88.142,33.779c-13.874,8.942-23.058,18.466-27.409,27.016c-2.474,4.754-3.564,9.167-3.672,13.642
		v0.348c0,21.674,4.699,56.418,17.439,93.582C40.85,218.773,61.559,258.394,92.979,291.307z M436.924,136.956
		c-8.844,5.048-19.797,9.738-32.385,13.964c-12.579,4.207-26.89,7.934-42.427,10.944c-10.113,1.984-20.878,3.734-32.081,5.119
		c-6.986-13.356-14.742-25.765-23.112-37.138c6.745-0.778,16.009-1.743,26.963-2.582c14.088-1.036,31-1.876,49.109-1.876
		c21.012,0,43.463,1.268,64.834,4.458C444.625,132.248,441.016,134.669,436.924,136.956z M452.577,86.694
		c3.556,3.189,6.2,6.325,7.951,9.327c2.216,3.681,3.109,6.987,3.109,10.301c0,2.456-0.464,4.931-1.68,7.576
		c-25.997-4.932-53.622-6.558-78.967-6.558c-18.6,0-35.986,0.84-50.432,1.983c-19.502,1.448-33.707,3.306-38.638,3.976
		c-7.88-9.399-16.072-18.064-24.372-25.944c15.286-2.886,39.658-6.682,68.488-8.425c9.568-0.544,19.681-0.902,30.089-0.902
		C395.087,78.028,424.167,80.37,452.577,86.694z M256.005,41.132c21.486,0,42.248,1.081,61.742,3.073
		c32.564,3.431,61.697,9.328,85.229,17.091c-11.855-0.902-23.594-1.331-34.851-1.331c-10.828,0-21.298,0.366-31.242,1.027
		c-40.444,2.349-72.096,8.674-83.952,11.319c-13.901-11.801-27.445-21.549-39.666-29.67
		C227.041,41.614,241.379,41.132,256.005,41.132z M184.078,45.411c34.546,21.056,90.947,59.392,126.691,123.68
		c-14.571,1.322-29.723,2.1-45.384,2.35C233.92,114.559,188.053,74.785,152.907,50.28C162.771,48.359,173.241,46.733,184.078,45.411
		z M128.465,55.64c32.93,20.941,82.272,59.276,116.167,115.801c-17.939-0.312-35.271-1.394-51.7-3.135
		c-30.276-46.162-69.273-79.449-100.095-100.989C103.253,62.975,115.162,59.07,128.465,55.64z M51.49,96.021
		c3.672-6.254,11.31-13.186,22.567-19.682c27.748,18.422,64.699,47.85,94.735,88.839c-23.774-3.663-45.134-8.728-63.074-14.866
		c-18.904-6.504-33.948-14.206-43.633-22.094c-4.878-3.913-8.38-7.88-10.596-11.552c-2.162-3.671-3.073-6.986-3.127-10.345
		C48.417,103.008,49.329,99.702,51.49,96.021z" style="fill: rgb(79, 58, 58);"></path>
	<polygon class="st0" points="9.537,431.122 9.537,456.218 502.463,456.218 502.463,419.946 	" style="fill: rgb(79, 58, 58);"></polygon>
	<polygon class="st0" points="9.537,500.824 502.463,512 502.463,475.729 9.537,475.729 	" style="fill: rgb(79, 58, 58);"></polygon>
</g>
</svg>
